<?xml version="1.0" encoding="iso-8859-1"?>
<!-- Generator: Adobe Illustrator 19.0.0, SVG Export Plug-In . SVG Version: 6.00 Build 0)  -->
<svg version="1.1" id="Layer_1" xmlns="http://www.w3.org/2000/svg" xmlns:xlink="http://www.w3.org/1999/xlink" x="0px" y="0px"
	 viewBox="0 0 512 512" style="enable-background:new 0 0 512 512;" xml:space="preserve">
<path style="fill:#CCE6FF;" d="M362.05,142.863c-2.521,9.036-11.735,17.255-20.689,17.255H95.937c-3.953,0-7.932-1.145-11.449-3.516
	c-20.621-13.97-32.942-37.154-32.942-62.041c0-41.297,33.596-74.893,74.88-74.893c9.009,0,17.773,1.581,26.018,4.634
	C166.387,8.982,186.231,0,207.739,0h0.436c31.934,0.191,59.206,20.458,69.755,48.82c10.59-1.717,21.507-1.158,32.097,1.799
	C349.797,61.714,373.131,103.092,362.05,142.863z"/>
<path style="fill:#BDDEFF;" d="M362.05,142.863c-2.521,9.036-11.735,17.255-20.689,17.255H208.175V0
	c31.934,0.191,59.206,20.458,69.755,48.82c10.59-1.717,21.507-1.158,32.097,1.799C349.797,61.714,373.131,103.092,362.05,142.863z"
	/>
<path style="fill:#FFC033;" d="M365.348,165.787v243.134C365.348,465.756,319.104,512,262.27,512H162.38
	c-56.834,0-103.079-46.244-103.079-103.079V165.787c0-27.381,22.27-49.638,49.638-49.638H315.71
	C343.078,116.149,365.348,138.406,365.348,165.787z"/>
<path style="fill:#F9A926;" d="M365.348,165.787v243.134C365.348,465.756,319.104,512,262.27,512h-54.095V116.149H315.71
	C343.078,116.149,365.348,138.406,365.348,165.787z"/>
<path style="fill:#A6673A;" d="M376.143,162.38h-10.931c-1.758-25.787-23.279-46.231-49.502-46.231H108.939
	c-27.368,0-49.638,22.257-49.638,49.638v243.134C59.301,465.756,105.546,512,162.38,512h99.889
	c45.931,0,84.938-30.216,98.213-71.799h15.66c46.49,0,84.311-37.821,84.311-84.311V246.678
	C460.454,200.188,422.632,162.38,376.143,162.38z M324.46,408.921c0,34.291-27.899,62.191-62.191,62.191H162.38
	c-34.291,0-62.191-27.899-62.191-62.191V165.787c0-4.743,4.007-8.75,8.75-8.75H315.71c4.743,0,8.75,4.007,8.75,8.75V408.921z
	 M419.566,355.889c0,23.947-19.476,43.423-43.423,43.423h-10.794V203.268h10.794c23.947,0,43.423,19.476,43.423,43.409
	L419.566,355.889L419.566,355.889z"/>
<path style="fill:#99522E;" d="M376.143,162.38h-10.931c-1.758-25.787-23.279-46.231-49.502-46.231H208.175v40.888H315.71
	c4.743,0,8.75,4.007,8.75,8.75v243.134c0,34.291-27.899,62.191-62.191,62.191h-54.095V512h54.095
	c45.931,0,84.938-30.216,98.213-71.799h15.66c46.49,0,84.311-37.821,84.311-84.311V246.678
	C460.454,200.188,422.632,162.38,376.143,162.38z M419.566,355.889c0,23.947-19.476,43.423-43.423,43.423h-10.794V203.268h10.794
	c23.947,0,43.423,19.476,43.423,43.409L419.566,355.889L419.566,355.889z"/>
<g>
</g>
<g>
</g>
<g>
</g>
<g>
</g>
<g>
</g>
<g>
</g>
<g>
</g>
<g>
</g>
<g>
</g>
<g>
</g>
<g>
</g>
<g>
</g>
<g>
</g>
<g>
</g>
<g>
</g>
</svg>
